<?xml version="1.0" encoding="utf-8"?>
<!-- Generator: Adobe Illustrator 16.0.0, SVG Export Plug-In . SVG Version: 6.00 Build 0)  -->
<!DOCTYPE svg PUBLIC "-//W3C//DTD SVG 1.1//EN" "http://www.w3.org/Graphics/SVG/1.1/DTD/svg11.dtd">
<svg version="1.1" id="Layer_9" xmlns="http://www.w3.org/2000/svg" xmlns:xlink="http://www.w3.org/1999/xlink" x="0px" y="0px"
	 width="512px" height="512px" viewBox="0 0 512 512" enable-background="new 0 0 512 512" xml:space="preserve">
<path fill-rule="evenodd" clip-rule="evenodd" fill="#464646" d="M255.99,512C114.616,512,0,397.387,0,256
	C0,114.621,114.616,0,255.99,0c17.262,0,34.121,1.742,50.434,4.984c7.688,1.164,13.578,7.75,13.578,15.75
	c0,8.844-7.156,16.008-16,16.008c-1.062,0-2.078-0.109-3.078-0.312l-0.016,0.094c-14.516-2.961-29.531-4.523-44.918-4.523
	c-72.257,0-136.358,34.36-177.311,87.479l89.538,270.008c0.016,0.023,0.016-0.031,0.031,0.023c0.344,1.328,1.047,2.602,2.102,3.656
	c3.117,3.125,8.18,3.125,11.305,0c0.914-0.914,1.555-1.992,1.938-3.141c0-0.016,0.016,0,0.016-0.016l24.938-75.205
	c2.297-6.297,8.25-10.798,15.335-10.798c9.039,0,16.359,7.321,16.359,16.36c0,2.242-0.469,4.375-1.273,6.336l0.109,0.047
	l-32.812,98.979c-1.508,4.555-4.016,8.79-7.641,12.392c-12.484,12.508-32.758,12.508-45.242,0
	c-3.516-3.516-5.977-7.603-7.523-12.032L56.093,155.325C40.812,185.623,32,219.741,32,256c0,123.715,100.28,223.999,223.99,223.999
	C379.704,479.999,480,379.715,480,256c0-42.212-11.953-81.463-32.328-115.175c-1.469-7.321-7.921-12.821-15.671-12.821
	c-8.828,0-16.016,7.156-16.016,16c0,8.165,15.266,69.572,8.938,104.535l-58.797,177.606c-1.547,4.406-4,8.485-7.5,11.978
	c-12.484,12.508-32.766,12.508-45.265,0c-3.547-3.547-6.031-7.751-7.562-12.235l-49.785-150.207l-0.023,0.055l-17.258-52.041
	l0.016-0.039l-30.078-90.761c-2.805-8.445,1.898-17.508,10.508-20.25c8.632-2.742,17.867,1.883,20.671,10.313l88.37,266.531
	c0.016,0.023,0.016-0.031,0.031,0.023c0.344,1.328,1.047,2.602,2.078,3.656c3.141,3.125,8.203,3.125,11.328,0
	c0.906-0.914,1.562-1.992,1.938-3.141c0-0.016,0.016,0.023,0.016,0l48.188-145.559c5.141-26.657-7.812-76.393-7.812-100.972
	c0-26.228,21.281-47.501,47.5-47.501c17.655,0,32.858,9.743,41.046,24.001h0.312C497.609,159.411,512,206.006,512,256
	C512,397.387,397.392,512,255.99,512L255.99,512z M368.001,63.994c-8.844,0-16-7.164-16-16.008c0-8.821,7.156-15.985,16-15.985
	c8.828,0,15.984,7.164,15.984,15.985C383.985,56.83,376.829,63.994,368.001,63.994L368.001,63.994z"/>
</svg>
